<svg width="700pt" height="700pt" version="1.1" viewBox="0 0 700 700" xmlns="http://www.w3.org/2000/svg">
 <path d="m383.93 384.03c36.718-36.727 54.265-88.435 47.481-139.92-6.7844-51.483-37.13-96.883-82.099-122.84-44.974-25.963-99.465-29.531-147.44-9.6551-47.976 19.875-83.978 60.932-97.417 111.09-13.438 50.16-2.782 103.72 28.83 144.92 31.612 41.197 80.589 65.351 132.51 65.351 44.334 0.12156 86.873-17.501 118.13-48.94zm82.72-118.13c0 53.269-21.167 104.36-58.833 142.02-37.667 37.662-88.752 58.824-142.02 58.824-53.265 0-104.36-21.157-142.02-58.824-37.373-37.728-58.286-88.72-58.16-141.83 0.12156-53.105 21.273-104 58.824-141.55 37.554-37.55 88.449-58.702 141.55-58.828 53.103-0.12568 104.1 20.783 141.83 58.155 18.717 18.609 33.552 40.743 43.652 65.126 10.099 24.378 15.261 50.52 15.187 76.909zm-200.85 242.6c-56.122-0.03735-110.5-19.534-153.86-55.168-43.362-35.637-73.029-85.204-83.941-140.26-10.913-55.05-2.4032-112.19 24.084-161.67 26.487-49.482 69.316-88.248 121.18-109.7 51.862-21.447 109.56-24.248 163.26-7.9205 53.699 16.323 100.08 50.758 131.23 97.444 31.158 46.681 45.161 102.72 39.63 158.57-5.5313 55.85-30.255 108.06-69.961 147.73-22.527 22.546-49.281 40.421-78.732 52.6-29.451 12.18-61.021 18.422-92.894 18.366zm208.27-60.713c-4.0678 4.6475-8.3039 9.2109-12.727 13.643-4.4231 4.4324-8.9958 8.6639-13.643 12.737l42.936 42.965 26.38-26.38-42.973-42.965zm83.249 50.501-59.119 59.119 107.05 107.06c10.557 10.562 25.955 14.687 40.378 10.824 14.429-3.8668 25.697-15.136 29.564-29.564 3.8668-14.425-0.25714-29.816-10.815-40.378z" fill="#fff" fill-rule="evenodd"/>
</svg>
